<svg xmlns="http://www.w3.org/2000/svg" viewBox="0 0 306.23 306.23"><defs><style>.cls-1{fill:#80ddff;}.cls-2{fill:#77d0e8;}.cls-3{fill:#fff;}</style></defs><title>contact-icon-4</title><g id="Layer_2" data-name="Layer 2"><g id="Layer_1-2" data-name="Layer 1"><circle class="cls-1" cx="153.11" cy="153.11" r="153.11" transform="translate(-63.42 153.11) rotate(-45)"/><path class="cls-2" d="M153.11,0V306.23A153.12,153.12,0,1,0,153.11,0Z"/><path class="cls-3" d="M234.23,202.42,208,176.18a13.69,13.69,0,0,0-19.29.37L175.5,189.76l-2.61-1.45c-8.34-4.63-19.76-11-31.78-23s-18.4-23.49-23-31.84c-.49-.89-1-1.74-1.42-2.55l8.87-8.85,4.36-4.37a13.66,13.66,0,0,0,.35-19.29L104,72.19a13.67,13.67,0,0,0-19.28.36L77.33,80l.2.2a42.65,42.65,0,0,0-6.09,10.74,44.46,44.46,0,0,0-2.71,10.9c-3.46,28.71,9.66,55,45.26,90.57,49.23,49.21,88.89,45.5,90.6,45.31A44,44,0,0,0,215.52,235a42.62,42.62,0,0,0,10.71-6.07l.16.15,7.49-7.34A13.68,13.68,0,0,0,234.23,202.42Z"/></g></g></svg>