<svg xmlns="http://www.w3.org/2000/svg" viewBox="0 0 306.23 306.23"><defs><style>.cls-1{fill:#437582;}.cls-2{fill:#3a646d;}.cls-3{fill:#fff;}</style></defs><title>contact-icon-4_1</title><g id="Layer_2" data-name="Layer 2"><g id="Layer_1-2" data-name="Layer 1"><circle class="cls-1" cx="153.11" cy="153.11" r="153.11" transform="translate(-25.54 275.46) rotate(-79.4)"/><path class="cls-2" d="M153.11,0V306.23A153.12,153.12,0,1,0,153.11,0Z"/><path class="cls-3" d="M191.26,62.47H115a13.19,13.19,0,0,0-13.2,13.2v154.9A13.19,13.19,0,0,0,115,243.76h76.28a13.2,13.2,0,0,0,13.19-13.19V75.67A13.2,13.2,0,0,0,191.26,62.47Zm-57,8H172c1,0,1.72,1.42,1.72,3.17s-.77,3.19-1.72,3.19H134.29c-1,0-1.71-1.43-1.71-3.19S133.33,70.49,134.29,70.49Zm18.83,160.24a8.43,8.43,0,1,1,8.41-8.43A8.44,8.44,0,0,1,153.12,230.73Zm41.44-28.87H111.67V84.75h82.89Z"/></g></g></svg>